<?xml version="1.0" encoding="UTF-8" standalone="no"?>
<svg
   xmlns:dc="http://purl.org/dc/elements/1.1/"
   xmlns:cc="http://creativecommons.org/ns#"
   xmlns:rdf="http://www.w3.org/1999/02/22-rdf-syntax-ns#"
   xmlns:svg="http://www.w3.org/2000/svg"
   xmlns="http://www.w3.org/2000/svg"
   width="1280"
   height="720"
   viewBox="0 0 1280 720"
   version="1.1"
   id="svg4">
  <metadata
     id="metadata10">
    <rdf:RDF>
      <cc:Work
         rdf:about="">
        <dc:format>image/svg+xml</dc:format>
        <dc:type
           rdf:resource="http://purl.org/dc/dcmitype/StillImage" />
        <dc:title />
      </cc:Work>
    </rdf:RDF>
  </metadata>
  <defs
     id="defs8" />
  <g
     id="g62">
    <rect
       style="fill:#232323;fill-opacity:1;stroke-width:8.05836"
       id="rect835"
       width="1280"
       height="720"
       x="1.0742187e-07"
       y="-3.1738281e-07" />
    <g
       id="g48"
       transform="matrix(1.1019264,0,0,1.1019264,-85.726666,228.38673)">
      <path
         d="m 585.95066,154.74466 v -48.23467 h 12.43067 v 3.87867 c 3.68,-2.98267 8.25467,-4.872 13.62533,-4.872 6.664,0 12.72934,2.984 16.708,7.756 3.18267,3.78 4.972,8.65333 4.972,16.90666 v 24.56534 h -12.928 v -25.55867 c 0,-4.77333 -1.09466,-7.26 -2.884,-9.05067 -1.69066,-1.68933 -4.27733,-2.68533 -7.26,-2.68533 -5.47066,0 -9.94533,3.48133 -11.736,5.968 v 31.32667 z"
         style="fill:#ffffff;fill-opacity:1;fill-rule:nonzero;stroke:none;stroke-width:1.33333"
         id="path22" />
      <path
         d="m 724.82039,124.41199 c -0.39866,-4.276 -4.27733,-8.45333 -9.548,-8.45333 -5.37066,0 -9.74666,4.07733 -10.34266,8.45333 z m 12.03334,22.676 c -4.67467,5.568 -12.332,8.65067 -19.79067,8.65067 -14.42133,0 -25.26133,-9.944 -25.26133,-25.06134 0,-13.42533 9.14933,-25.16133 23.47066,-25.16133 13.32667,0 22.77467,11.23733 22.77467,24.664 0,1.29333 -0.1,2.58667 -0.29867,3.68 h -33.416 c 0.69734,6.76267 6.16667,11.43733 13.02934,11.43733 5.46933,0 9.84533,-3.084 12.132,-5.56933 z"
         style="fill:#ffffff;fill-opacity:1;fill-rule:nonzero;stroke:none;stroke-width:1.33333"
         id="path26" />
      <path
         d="m 562.506,123.41732 c -2.68534,-3.58 -6.96134,-5.96666 -11.93467,-5.96666 -7.55867,0 -12.432,6.26533 -12.432,13.22666 0,7.55867 5.47067,13.128 12.73067,13.128 4.87333,0 9.14933,-2.38666 11.636,-5.96666 z m 12.928,31.328 h -12.43067 v -3.87866 c -3.97867,3.38133 -8.55333,4.872 -13.42667,4.872 -7.16,0 -13.924,-3.18134 -18.19999,-8.15467 -3.78,-4.37467 -6.16534,-10.34267 -6.16534,-16.90667 0,-14.22133 10.54133,-25.16133 23.66933,-25.16133 5.46934,0 10.34267,1.79067 14.12267,4.87333 v -3.87866 H 575.434 Z"
         style="fill:#ffffff;fill-opacity:1;fill-rule:nonzero;stroke:none;stroke-width:1.33333"
         id="path30" />
      <path
         d="m 688.84173,144.89879 c -5.66934,7.55867 -12.82934,10.84 -21.88,10.84 -14.91733,0 -25.85733,-11.13867 -25.85733,-25.06133 0,-14.02267 11.23733,-25.16134 25.95733,-25.16134 8.35333,0 15.812,3.87734 20.288,9.64667 l -9.14934,8.056 c -2.58666,-3.38133 -6.46533,-5.76933 -11.13866,-5.76933 -7.46,0 -13.02933,5.868 -13.02933,13.228 0,7.55866 5.47066,13.128 13.32666,13.128 5.27067,0 9.448,-3.18267 11.53733,-6.36534 z"
         style="fill:#ffffff;fill-opacity:1;fill-rule:nonzero;stroke:none;stroke-width:1.33333"
         id="path34" />
      <path
         d="m 523.22307,117.94719 c -0.896,-0.29733 -2.78534,-0.49733 -4.67467,-0.49733 -5.668,0 -10.144,4.07733 -11.73467,6.96133 v 30.33333 H 493.8844 v -48.23466 h 12.432 v 4.87333 c 2.884,-3.58 8.15467,-5.86667 14.02267,-5.86667 1.88933,0 2.98266,0.19734 4.376,0.39734 z"
         style="fill:#ffffff;fill-opacity:1;fill-rule:nonzero;stroke:none;stroke-width:1.33333"
         id="path38" />
      <path
         d="m 485.9268,95.073857 c -1.09467,-0.298666 -2.68533,-0.497333 -3.87867,-0.497333 -3.18266,0 -5.66933,0.896 -7.26,2.784 -1.09466,1.393333 -1.79066,3.182666 -1.79066,7.658666 v 1.492 h 14.91866 v 10.93867 h -14.91866 v 37.29466 h -12.928 v -37.29466 h -12.432 v -10.93867 h 12.432 v -1.98933 c 0,-7.757336 1.78933,-12.432003 5.17066,-15.713336 3.38134,-3.281333 8.45334,-5.669333 15.01734,-5.669333 2.58666,0 4.97333,0.2 7.65866,0.896 z"
         style="fill:#ffffff;fill-opacity:1;fill-rule:nonzero;stroke:none;stroke-width:1.33333"
         id="path42" />
      <path
         d="m 776.61146,130.62732 c 0,7.276 -5.89867,13.17467 -13.17467,13.17467 -7.276,0 -13.17333,-5.89867 -13.17333,-13.17467 0,-7.276 5.89733,-13.17333 13.17333,-13.17333 7.276,0 13.17467,5.89733 13.17467,13.17333"
         style="fill:#ffffff;fill-opacity:1;fill-rule:nonzero;stroke:none;stroke-width:1.33333"
         id="path46" />
      <path
         d="M 805.37212,106.50999 V 93.084657 h -12.92933 v 13.425333 h -12.42666 v 10.94 h 12.42666 v 16.908 c 0,6.86133 1.09467,11.13733 3.58,14.42 3.28267,4.37467 8.95067,6.96133 16.708,6.96133 2.48667,0 6.36533,-0.39733 8.056,-0.99466 l -1.98933,-10.94 c -0.89467,0.19866 -3.38134,0.49866 -5.27067,0.49866 -3.18267,0 -5.27067,-0.896 -6.564,-2.388 -1.09333,-1.292 -1.59067,-3.08266 -1.59067,-6.06666 v -18.39867 h 15.90934 l 17.148,37.29467 h 8.95066 l 22.17867,-48.23467 h -13.42667 l -13.22666,29.43867 -13.228,-29.43867 z"
         style="fill:#ffffff;fill-opacity:1;fill-rule:nonzero;stroke:none;stroke-width:1.33333"
         id="path50" />
    </g>
  </g>
</svg>
