<?xml version="1.0" encoding="UTF-8" standalone="no"?>
<svg
   xmlns:dc="http://purl.org/dc/elements/1.1/"
   xmlns:cc="http://creativecommons.org/ns#"
   xmlns:rdf="http://www.w3.org/1999/02/22-rdf-syntax-ns#"
   xmlns:svg="http://www.w3.org/2000/svg"
   xmlns="http://www.w3.org/2000/svg"
   width="512"
   height="512"
   viewBox="0 0 512 512"
   version="1.1"
   id="svg4">
  <metadata
     id="metadata10">
    <rdf:RDF>
      <cc:Work
         rdf:about="">
        <dc:format>image/svg+xml</dc:format>
        <dc:type
           rdf:resource="http://purl.org/dc/dcmitype/StillImage" />
        <dc:title />
      </cc:Work>
    </rdf:RDF>
  </metadata>
  <defs
     id="defs8">
    <clipPath
       clipPathUnits="userSpaceOnUse"
       id="clipPath18">
      <path
         d="m 184.032,269.55 h 316.44 V 324 h -316.44 z"
         id="path16" />
    </clipPath>
  </defs>
  <g
     id="g1130">
    <rect
       style="fill:#ffffff;stroke:none;stroke-width:2.13657"
       id="rect12"
       width="512"
       height="512"
       x="0"
       y="0" />
    <g
       id="g962"
       style="fill:#232323;fill-opacity:1"
       transform="matrix(0.97095975,0,0,0.97095975,104.10793,21.701666)">
      <g
         id="g20"
         transform="matrix(1.3333333,0,0,-1.3333333,83.787524,276.61132)"
         style="fill:#232323;fill-opacity:1">
        <path
           d="m 0,0 v 36.176 h 9.323 v -2.909 c 2.76,2.237 6.191,3.654 10.219,3.654 4.998,0 9.547,-2.238 12.531,-5.817 2.387,-2.835 3.729,-6.49 3.729,-12.68 V 0 h -9.696 v 19.169 c 0,3.58 -0.821,5.445 -2.163,6.788 -1.268,1.267 -3.208,2.014 -5.445,2.014 -4.103,0 -7.459,-2.611 -8.802,-4.476 L 9.696,0 Z"
           style="fill:#232323;fill-opacity:1;fill-rule:nonzero;stroke:none"
           id="path22" />
      </g>
      <g
         id="g24"
         transform="matrix(1.3333333,0,0,-1.3333333,222.65725,246.27865)"
         style="fill:#232323;fill-opacity:1">
        <path
           d="m 0,0 c -0.299,3.207 -3.208,6.34 -7.161,6.34 -4.028,0 -7.31,-3.058 -7.757,-6.34 z m 9.025,-17.007 c -3.506,-4.176 -9.249,-6.488 -14.843,-6.488 -10.816,0 -18.946,7.458 -18.946,18.796 0,10.069 6.862,18.871 17.603,18.871 9.995,0 17.081,-8.428 17.081,-18.498 0,-0.97 -0.075,-1.94 -0.224,-2.76 h -25.062 c 0.523,-5.072 4.625,-8.578 9.772,-8.578 4.102,0 7.384,2.313 9.099,4.177 z"
           style="fill:#232323;fill-opacity:1;fill-rule:nonzero;stroke:none"
           id="path26" />
      </g>
      <g
         id="g28"
         transform="matrix(1.3333333,0,0,-1.3333333,60.342858,245.28398)"
         style="fill:#232323;fill-opacity:1">
        <path
           d="m 0,0 c -2.014,2.685 -5.221,4.475 -8.951,4.475 -5.669,0 -9.324,-4.699 -9.324,-9.92 0,-5.669 4.103,-9.846 9.548,-9.846 3.655,0 6.862,1.79 8.727,4.475 z M 9.696,-23.496 H 0.373 v 2.909 c -2.984,-2.536 -6.415,-3.654 -10.07,-3.654 -5.37,0 -10.443,2.386 -13.65,6.116 -2.835,3.281 -4.624,7.757 -4.624,12.68 0,10.666 7.906,18.871 17.752,18.871 4.102,0 7.757,-1.343 10.592,-3.655 v 2.909 h 9.323 z"
           style="fill:#232323;fill-opacity:1;fill-rule:nonzero;stroke:none"
           id="path30" />
      </g>
      <g
         id="g32"
         transform="matrix(1.3333333,0,0,-1.3333333,186.67859,266.76545)"
         style="fill:#232323;fill-opacity:1">
        <path
           d="m 0,0 c -4.252,-5.669 -9.622,-8.13 -16.41,-8.13 -11.188,0 -19.393,8.354 -19.393,18.796 0,10.517 8.428,18.871 19.468,18.871 6.265,0 11.859,-2.908 15.216,-7.235 L -7.981,16.26 c -1.94,2.536 -4.849,4.327 -8.354,4.327 -5.595,0 -9.772,-4.401 -9.772,-9.921 0,-5.669 4.103,-9.846 9.995,-9.846 3.953,0 7.086,2.387 8.653,4.774 z"
           style="fill:#232323;fill-opacity:1;fill-rule:nonzero;stroke:none"
           id="path34" />
      </g>
      <g
         id="g36"
         transform="matrix(1.3333333,0,0,-1.3333333,21.059925,239.81385)"
         style="fill:#232323;fill-opacity:1">
        <path
           d="m 0,0 c -0.672,0.223 -2.089,0.373 -3.506,0.373 -4.251,0 -7.608,-3.058 -8.801,-5.221 v -22.75 h -9.697 V 8.578 h 9.324 V 4.923 c 2.163,2.685 6.116,4.4 10.517,4.4 1.417,0 2.237,-0.148 3.282,-0.298 z"
           style="fill:#232323;fill-opacity:1;fill-rule:nonzero;stroke:none"
           id="path38" />
      </g>
      <g
         id="g40"
         transform="matrix(1.3333333,0,0,-1.3333333,-16.23634,216.94052)"
         style="fill:#232323;fill-opacity:1">
        <path
           d="m 0,0 c -0.821,0.224 -2.014,0.373 -2.909,0.373 -2.387,0 -4.252,-0.672 -5.445,-2.088 -0.821,-1.045 -1.343,-2.387 -1.343,-5.744 V -8.578 H 1.492 v -8.204 H -9.697 v -27.971 h -9.696 v 27.971 h -9.324 v 8.204 h 9.324 v 1.492 c 0,5.818 1.342,9.324 3.878,11.785 2.536,2.461 6.34,4.252 11.263,4.252 1.94,0 3.73,-0.15 5.744,-0.672 z"
           style="fill:#232323;fill-opacity:1;fill-rule:nonzero;stroke:none"
           id="path42" />
      </g>
      <g
         id="g44"
         transform="matrix(1.3333333,0,0,-1.3333333,274.44832,252.49398)"
         style="fill:#232323;fill-opacity:1">
        <path
           d="m 0,0 c 0,-5.457 -4.424,-9.881 -9.881,-9.881 -5.457,0 -9.88,4.424 -9.88,9.881 0,5.457 4.423,9.88 9.88,9.88 C -4.424,9.88 0,5.457 0,0"
           style="fill:#232323;fill-opacity:1;fill-rule:nonzero;stroke:none"
           id="path46" />
      </g>
      <g
         id="g48"
         transform="matrix(1.3333333,0,0,-1.3333333,303.20898,228.37665)"
         style="fill:#232323;fill-opacity:1">
        <path
           d="M 0,0 V 10.069 H -9.697 V 0 h -9.32 v -8.205 h 9.32 v -12.681 c 0,-5.146 0.821,-8.353 2.685,-10.815 2.462,-3.281 6.713,-5.221 12.531,-5.221 1.865,0 4.774,0.298 6.042,0.746 l -1.492,8.205 c -0.671,-0.149 -2.536,-0.374 -3.953,-0.374 -2.387,0 -3.953,0.672 -4.923,1.791 C 0.373,-25.585 0,-24.242 0,-22.004 v 13.799 h 11.932 l 12.861,-27.971 h 6.713 L 48.14,0 H 38.07 L 28.15,-22.079 18.229,0 Z"
           style="fill:#232323;fill-opacity:1;fill-rule:nonzero;stroke:none"
           id="path50" />
      </g>
    </g>
  </g>
</svg>
