<?xml version="1.0" encoding="UTF-8" standalone="no"?>
<svg
   xmlns:dc="http://purl.org/dc/elements/1.1/"
   xmlns:cc="http://creativecommons.org/ns#"
   xmlns:rdf="http://www.w3.org/1999/02/22-rdf-syntax-ns#"
   xmlns:svg="http://www.w3.org/2000/svg"
   xmlns="http://www.w3.org/2000/svg"
   width="512"
   height="512"
   viewBox="0 0 512 512"
   class="bi bi-collection-fill"
   fill="currentColor"
   version="1.1"
   id="svg245">
  <metadata
     id="metadata251">
    <rdf:RDF>
      <cc:Work
         rdf:about="">
        <dc:format>image/svg+xml</dc:format>
        <dc:type
           rdf:resource="http://purl.org/dc/dcmitype/StillImage" />
        <dc:title />
      </cc:Work>
    </rdf:RDF>
  </metadata>
  <defs
     id="defs249" />
  <g
     id="g433"
     style="fill:#ffffff">
    <path
       d="m 102.4,352 a 28.8,28.8 0 0 0 28.8,28.8 H 380.8 A 28.8,28.8 0 0 0 409.6,352 V 217.6 A 28.8,28.8 0 0 0 380.8,188.8 H 131.2 a 28.8,28.8 0 0 0 -28.8,28.8 z"
       id="path241"
       style="stroke-width:19.2;fill:#ffffff" />
    <path
       fill-rule="evenodd"
       d="m 140.8,160 a 9.6,9.6 0 0 0 9.6,9.6 h 211.2 a 9.6,9.6 0 0 0 0,-19.2 H 150.4 a 9.6,9.6 0 0 0 -9.6,9.6 z m 38.4,-38.4 a 9.6,9.6 0 0 0 9.6,9.6 h 134.4 a 9.6,9.6 0 0 0 0,-19.2 H 188.8 a 9.6,9.6 0 0 0 -9.6,9.6 z"
       id="path243"
       style="stroke-width:19.2;fill:#ffffff" />
  </g>
</svg>
