<?xml version="1.0" encoding="UTF-8" standalone="no"?>
<svg
   xmlns:dc="http://purl.org/dc/elements/1.1/"
   xmlns:cc="http://creativecommons.org/ns#"
   xmlns:rdf="http://www.w3.org/1999/02/22-rdf-syntax-ns#"
   xmlns:svg="http://www.w3.org/2000/svg"
   xmlns="http://www.w3.org/2000/svg"
   width="512"
   height="512"
   viewBox="0 0 512 512"
   class="bi bi-tags"
   fill="currentColor"
   version="1.1"
   id="svg269">
  <metadata
     id="metadata275">
    <rdf:RDF>
      <cc:Work
         rdf:about="">
        <dc:format>image/svg+xml</dc:format>
        <dc:type
           rdf:resource="http://purl.org/dc/dcmitype/StillImage" />
        <dc:title />
      </cc:Work>
    </rdf:RDF>
  </metadata>
  <defs
     id="defs273" />
  <g
     id="g422"
     style="fill:#ffffff">
    <path
       fill-rule="evenodd"
       d="m 160,140.8 v 88.0512 l 134.4,134.4 88.0512,-88.0512 -134.4,-134.4 z m -19.2,0 A 19.2,19.2 0 0 1 160,121.6 h 88.0512 a 19.2,19.2 0 0 1 13.5744,5.6256 l 134.4,134.4 a 19.2,19.2 0 0 1 0,27.1488 l -88.0512,88.0512 a 19.2,19.2 0 0 1 -27.1488,0 l -134.4,-134.4 A 19.2,19.2 0 0 1 140.8,228.8512 Z"
       id="path263"
       style="stroke-width:19.2;fill:#ffffff" />
    <path
       fill-rule="evenodd"
       d="m 208,198.4 a 9.6,9.6 0 1 0 0,-19.2 9.6,9.6 0 0 0 0,19.2 z m 0,19.2 a 28.8,28.8 0 1 0 0,-57.6 28.8,28.8 0 0 0 0,57.6 z"
       id="path265"
       style="stroke-width:19.2;fill:#ffffff" />
    <path
       d="m 121.6,238.4512 a 19.2,19.2 0 0 0 5.6256,13.5744 L 270.4,395.2 l -0.8256,0.8256 a 19.2,19.2 0 0 1 -27.1488,0 l -134.4,-134.4 A 19.2,19.2 0 0 1 102.4,248.0512 V 160 a 19.2,19.2 0 0 1 19.2,-19.2 z"
       id="path267"
       style="stroke-width:19.2;fill:#ffffff" />
  </g>
</svg>
