<?xml version="1.0" encoding="UTF-8" standalone="no"?>
<svg
   width="512"
   height="512"
   viewBox="0 0 512 512"
   fill="none"
   version="1.1"
   id="svg3"
   sodipodi:docname="documentaire-color.svg"
   inkscape:version="1.3.2 (091e20ef0f, 2023-11-25)"
   xmlns:inkscape="http://www.inkscape.org/namespaces/inkscape"
   xmlns:sodipodi="http://sodipodi.sourceforge.net/DTD/sodipodi-0.dtd"
   xmlns="http://www.w3.org/2000/svg"
   xmlns:svg="http://www.w3.org/2000/svg">
  <defs
     id="defs3" />
  <sodipodi:namedview
     id="namedview3"
     pagecolor="#ffffff"
     bordercolor="#000000"
     borderopacity="0.25"
     inkscape:showpageshadow="2"
     inkscape:pageopacity="0.0"
     inkscape:pagecheckerboard="0"
     inkscape:deskcolor="#d1d1d1"
     inkscape:zoom="0.91939665"
     inkscape:cx="28.823251"
     inkscape:cy="27.735581"
     inkscape:window-width="2560"
     inkscape:window-height="1371"
     inkscape:window-x="0"
     inkscape:window-y="0"
     inkscape:window-maximized="1"
     inkscape:current-layer="svg3" />
  <path
     id="path1"
     d="M 39.343501,133.96777 V 378.03223 H 104.60267 C 77.703463,344.6358 61.590256,302.20606 61.590256,255.99243 c 0,-46.21362 16.113207,-88.62824 43.012414,-122.02466 z m 368.053829,0 c 26.8996,33.39642 43.01242,75.81104 43.01242,122.02466 0,46.21363 -16.11282,88.64337 -43.01242,122.03979 H 472.6565 V 133.96777 Z m -198.4072,52.91162 v 144.05983 h 46.3071 c 22.84179,0 37.85667,-4.9435 49.5867,-13.58685 17.69756,-13.17007 28.60944,-34.57135 28.60944,-58.44306 0,-23.87095 -11.10835,-45.27224 -28.80592,-58.44308 -11.73003,-8.64257 -26.54843,-13.58684 -49.39022,-13.58684 z m 20.5843,19.55658 h 24.6951 c 20.16676,0 32.09847,4.31673 41.15347,12.13598 10.90671,9.67249 17.48608,24.28642 17.48608,40.33736 0,16.05169 -6.57937,30.66563 -17.48608,40.33735 -9.055,7.82001 -20.98671,12.13596 -41.15347,12.13596 h -24.6951 z"
     style="stroke-width:7.738;fill:#ffffff" />
</svg>
