<?xml version="1.0" encoding="UTF-8" standalone="no"?>
<svg
   xmlns:dc="http://purl.org/dc/elements/1.1/"
   xmlns:cc="http://creativecommons.org/ns#"
   xmlns:rdf="http://www.w3.org/1999/02/22-rdf-syntax-ns#"
   xmlns:svg="http://www.w3.org/2000/svg"
   xmlns="http://www.w3.org/2000/svg"
   width="512"
   height="512"
   viewBox="0 0 135.46666 135.46667"
   version="1.1"
   id="svg2374">
  <defs
     id="defs2368" />
  <metadata
     id="metadata2371">
    <rdf:RDF>
      <cc:Work
         rdf:about="">
        <dc:format>image/svg+xml</dc:format>
        <dc:type
           rdf:resource="http://purl.org/dc/dcmitype/StillImage" />
        <dc:title />
      </cc:Work>
    </rdf:RDF>
  </metadata>
  <g
     id="layer1">
    <g
       id="g2308"
       transform="translate(306.57864,85.492531)">
      <path
         fill-rule="evenodd"
         clip-rule="evenodd"
         d="m -213.14279,-28.270937 c 0,3.42087 -1.47466,7.232992 -6.78641,13.19552 l -24.19562,25.468186 v 9.621203 h 45.63755 V 8.2852696 h -25.88309 l 15.65367,-16.9094647 c 4.62316,-5.2782069 8.67881,-11.4363589 8.67881,-19.6467419 0,-12.413752 -10.05529,-21.015385 -22.05529,-21.015385 -10.96961,0 -21.71136,7.823502 -21.2499,22.252395 h 12.39553 c 0,-1.367183 0.0666,-2.579472 0.3332,-3.649221 1.24392,-4.987315 5.14623,-6.87374 8.52117,-6.87374 5.21287,0 8.95038,4.496438 8.95038,9.285951 z"
         fill="#ffffff"
         id="path309"
         style="stroke-width:0.721865" />
      <ellipse
         cx="-266.37"
         cy="-5.6527519"
         rx="12.833344"
         ry="12.83336"
         fill="#eb0031"
         id="ellipse311"
         style="fill:#eb0032;fill-opacity:1;stroke-width:0.721865" />
    </g>
  </g>
</svg>
