<?xml version="1.0" encoding="UTF-8" standalone="no"?>
<svg
   xmlns:dc="http://purl.org/dc/elements/1.1/"
   xmlns:cc="http://creativecommons.org/ns#"
   xmlns:rdf="http://www.w3.org/1999/02/22-rdf-syntax-ns#"
   xmlns:svg="http://www.w3.org/2000/svg"
   xmlns="http://www.w3.org/2000/svg"
   width="512"
   height="512"
   viewBox="0 0 512 512"
   class="bi bi-house-door"
   fill="currentColor"
   version="1.1"
   id="svg301">
  <metadata
     id="metadata307">
    <rdf:RDF>
      <cc:Work
         rdf:about="">
        <dc:format>image/svg+xml</dc:format>
        <dc:type
           rdf:resource="http://purl.org/dc/dcmitype/StillImage" />
        <dc:title />
      </cc:Work>
    </rdf:RDF>
  </metadata>
  <defs
     id="defs305" />
  <g
     id="g442"
     style="fill:#ffffff">
    <path
       fill-rule="evenodd"
       d="m 249.2032,124.4032 a 9.6,9.6 0 0 1 13.5936,0 l 115.2,115.2 A 9.6,9.6 0 0 1 380.8,246.4 v 134.4 a 9.6,9.6 0 0 1 -9.6,9.6 h -86.4 a 9.6,9.6 0 0 1 -9.6,-9.6 V 304 h -38.4 v 76.8 a 9.6,9.6 0 0 1 -9.6,9.6 h -86.4 a 9.6,9.6 0 0 1 -9.6,-9.6 V 246.4 a 9.6,9.6 0 0 1 2.8032,-6.7968 z M 150.4,250.3744 V 371.2 h 67.2 v -76.8 a 9.6,9.6 0 0 1 9.6,-9.6 h 57.6 a 9.6,9.6 0 0 1 9.6,9.6 v 76.8 h 67.2 V 250.3744 L 256,144.7744 Z"
       id="path297"
       style="stroke-width:19.2;fill:#ffffff" />
    <path
       fill-rule="evenodd"
       d="m 352,150.4 v 67.2 l -38.4,-38.4 v -28.8 a 9.6,9.6 0 0 1 9.6,-9.6 h 19.2 a 9.6,9.6 0 0 1 9.6,9.6 z"
       id="path299"
       style="stroke-width:19.2;fill:#ffffff" />
  </g>
</svg>
