<?xml version="1.0" encoding="UTF-8" standalone="no"?>
<svg
   xmlns:dc="http://purl.org/dc/elements/1.1/"
   xmlns:cc="http://creativecommons.org/ns#"
   xmlns:rdf="http://www.w3.org/1999/02/22-rdf-syntax-ns#"
   xmlns:svg="http://www.w3.org/2000/svg"
   xmlns="http://www.w3.org/2000/svg"
   width="512"
   height="512"
   viewBox="0 0 512 512"
   class="bi bi-tv"
   fill="currentColor"
   version="1.1"
   id="svg94">
  <metadata
     id="metadata100">
    <rdf:RDF>
      <cc:Work
         rdf:about="">
        <dc:format>image/svg+xml</dc:format>
        <dc:type
           rdf:resource="http://purl.org/dc/dcmitype/StillImage" />
        <dc:title />
      </cc:Work>
    </rdf:RDF>
  </metadata>
  <defs
     id="defs98" />
  <g
     id="g458"
     style="fill:#ffffff">
    <path
       fill-rule="evenodd"
       d="M 150.4,361.6 A 9.6,9.6 0 0 1 160,352 h 192 a 9.6,9.6 0 0 1 0,19.2 H 160 a 9.6,9.6 0 0 1 -9.6,-9.6 z M 371.0272,160 H 140.8 c -6.24,0 -9.6384,1.4976 -11.5584,2.784 a 14.5536,14.5536 0 0 0 -4.8768,5.7984 A 28.032,28.032 0 0 0 121.6,179.392 V 294.4 c 0,6.24 1.4976,9.6384 2.784,11.5584 1.344,2.016 3.264,3.6096 5.7984,4.8768 a 28.1088,28.1088 0 0 0 10.3296,2.7456 l 0.48,0.0192 H 371.2 c 6.24,0 9.6384,-1.4976 11.5584,-2.784 a 14.5536,14.5536 0 0 0 4.8768,-5.7984 28.1088,28.1088 0 0 0 2.7456,-10.3296 l 0.0192,-0.48 V 179.2 c 0,-6.24 -1.4976,-9.6384 -2.784,-11.5584 A 14.5344,14.5344 0 0 0 381.8176,162.7648 28.032,28.032 0 0 0 371.008,160 Z M 371.2,140.8 H 140.8 c -38.4,0 -38.4,38.4 -38.4,38.4 v 115.2 c 0,38.4 38.4,38.4 38.4,38.4 h 230.4 c 38.4,0 38.4,-38.4 38.4,-38.4 V 179.2 c 0,-38.4 -38.4,-38.4 -38.4,-38.4 z"
       id="path92"
       style="stroke-width:19.2;fill:#ffffff" />
    <path
       fill-rule="evenodd"
       d="m 222.5536,180.40688 a 9.6,9.6 0 0 1 9.7344,0.2496 l 76.8,48 a 9.6,9.6 0 0 1 0,16.2816 l -76.8,48 a 9.6,9.6 0 0 1 -14.688,-8.1408 v -96 a 9.6,9.6 0 0 1 4.9536,-8.3904 z"
       id="path182"
       style="stroke-width:19.2;fill:#ffffff" />
  </g>
</svg>
