<?xml version="1.0" encoding="UTF-8" standalone="no"?>
<svg
   xmlns:dc="http://purl.org/dc/elements/1.1/"
   xmlns:cc="http://creativecommons.org/ns#"
   xmlns:rdf="http://www.w3.org/1999/02/22-rdf-syntax-ns#"
   xmlns:svg="http://www.w3.org/2000/svg"
   xmlns="http://www.w3.org/2000/svg"
   width="512"
   height="512"
   viewBox="0 0 135.46666 135.46667"
   version="1.1"
   id="svg2374">
  <defs
     id="defs2368" />
  <metadata
     id="metadata2371">
    <rdf:RDF>
      <cc:Work
         rdf:about="">
        <dc:format>image/svg+xml</dc:format>
        <dc:type
           rdf:resource="http://purl.org/dc/dcmitype/StillImage" />
        <dc:title />
      </cc:Work>
    </rdf:RDF>
  </metadata>
  <g
     id="layer1">
    <g
       id="g19"
       style="fill:none"
       transform="matrix(0.71654632,0,0,0.71654722,10.41006,12.84762)">
      <path
         d="m 82.12,106.413 c -3.588,-12.232 -17.883,-18.83 -31.857,-14.7 -14.028,4.131 -22.434,17.383 -18.847,29.669 3.588,12.232 17.883,18.831 31.857,14.7 13.974,-4.131 22.434,-17.383 18.846,-29.669 z m 3.479,3.166 c 3.051,12.393 17.026,19.582 31.214,16.041 14.188,-3.541 23.183,-16.417 20.078,-28.81 -3.052,-12.393 -17.026,-19.582 -31.215,-16.041 -14.188,3.54 -23.183,16.417 -20.078,28.81 z M 44.583,34.2 C 57.243,33.774 67.881,45.21 68.36,59.732 68.839,74.254 58.945,86.328 46.285,86.701 33.625,87.073 22.987,75.69 22.508,61.168 22.083,46.7 31.923,34.626 44.583,34.2 Z"
         fill="#b481f7"
         id="path2" />
      <path
         d="m 126.606,39.838 -4.893,-11.01 -36.118,16.915 -2.021,-21.862 -15.107,2.978 6.756,61.81 13.99,-4.203 -1.862,-19.68 39.84,15.212 5,-13.032 -35.957,-13.67 z"
         fill="#b481f7"
         id="path4-3" />
      <path
         d="m 67.397,117.894 a 4.448,4.448 0 0 0 4.444,-4.453 4.449,4.449 0 0 0 -4.444,-4.453 4.449,4.449 0 0 0 -4.444,4.453 c 0,2.46 1.99,4.453 4.444,4.453 z m 33.3,-6.223 a 4.448,4.448 0 0 0 4.444,-4.453 4.448,4.448 0 0 0 -4.444,-4.453 4.449,4.449 0 0 0 -4.444,4.453 4.449,4.449 0 0 0 4.444,4.453 z"
         fill="#000000"
         id="path6-5" />
    </g>
  </g>
</svg>
