<?xml version="1.0" encoding="UTF-8" standalone="no"?>
<svg
   xmlns:dc="http://purl.org/dc/elements/1.1/"
   xmlns:cc="http://creativecommons.org/ns#"
   xmlns:rdf="http://www.w3.org/1999/02/22-rdf-syntax-ns#"
   xmlns:svg="http://www.w3.org/2000/svg"
   xmlns="http://www.w3.org/2000/svg"
   width="512"
   height="512"
   viewBox="0 0 135.46666 135.46667"
   version="1.1"
   id="svg2374">
  <defs
     id="defs2368" />
  <metadata
     id="metadata2371">
    <rdf:RDF>
      <cc:Work
         rdf:about="">
        <dc:format>image/svg+xml</dc:format>
        <dc:type
           rdf:resource="http://purl.org/dc/dcmitype/StillImage" />
        <dc:title />
      </cc:Work>
    </rdf:RDF>
  </metadata>
  <g
     id="layer1">
    <g
       id="g30"
       style="fill:none"
       transform="matrix(0.71654632,0,0,0.71654722,10.05056,12.84762)">
      <path
         d="M 66.761,104.454 C 48.24,93.789002 41.754,69.937002 52.285,51.180002 c 10.53,-18.757 34.058,-25.3 52.58,-14.636 0.148,0.075 0.296,0.175 0.444,0.25 z"
         fill="#5ae1ff"
         id="path2-3" />
      <path
         d="m 68.07,109.424 -3.107,-1.823 C 44.789,95.812002 37.883,69.712002 49.524,49.282002 c 11.616,-20.38 37.462,-27.398 57.587,-15.635 l 3.107,1.823 z M 86.098,35.221002 c -19.31,-0.025 -34.996,15.81 -35.02,35.365 -0.025,11.364 5.351,22.054 14.452,28.748 l 34.774,-61.041 a 34.385,34.385 0 0 0 -14.206,-3.072 z"
         fill="#000000"
         id="path4" />
      <path
         d="m 94.239,56.476002 c 18.447,10.79 24.761,34.666 14.107,53.347998 -10.655,18.682 -34.207,25.101 -52.655,14.311 L 94.239,56.475002 Z"
         fill="#ffffff"
         id="path6" />
      <path
         d="m 74.901,133 a 41.535,41.535 0 0 1 -21.012,-5.719 l -3.108,-1.824 42.173,-73.952998 3.107,1.823 c 20.125,11.764 27.055,37.938 15.439,58.318998 C 103.929,124.883 89.994,133.025 74.901,133 Z M 60.696,122.635 c 16.153,7.318 35.538,1.224 44.564,-14.611 9.027,-15.834998 4.563,-35.889998 -9.766,-46.379998 z"
         fill="#000000"
         id="path8" />
    </g>
  </g>
</svg>
